<svg xmlns="http://www.w3.org/2000/svg" style="display: none;"><symbol id="arroba-sign" viewBox="0 0 124.099 124.1"><title>arroba-sign</title><path d="M18.25,106.7c5.6,5.399,12.3,9.8,20.1,12.8c7.8,3,16.5,4.6,25.9,4.6c10.5,0,20.2-1.6,28.9-4.899 c7.9-2.9,1.1-17.601-4.7-15.2c-6.399,2.7-14.2,4.1-23.101,4.1c-7,0-13.399-1.1-19-3.199c-5.6-2.101-10.5-5.101-14.5-9 c-4-3.9-7.2-8.7-9.4-14.2c-2.3-5.601-3.4-12-3.4-19c0-6.6,1.1-12.9,3.3-18.5c2.2-5.6,5.2-10.6,9.2-14.6c3.9-4.1,8.7-7.4,14.2-9.7 c5.5-2.3,11.7-3.5,18.5-3.5c6.301,0,12.1,0.9,17.301,2.5c5.1,1.6,9.5,4.1,13.199,7.4c3.7,3.3,6.6,7.3,8.7,12.1 c2.101,4.8,3.101,10.4,3.101,16.8c0,3.7-0.4,7.2-1.201,10.5c-0.799,3.1-1.799,5.899-3.199,8.1c-1.301,2.101-2.801,3.8-4.6,5 c-2.101,1.4-5.201,2.2-7.601,1.4c-3-1-2.399-5.2-2.2-7.7c0.301-3.4,1.2-6.6,1.9-9.9c1.1-5.4,2.3-10.7,3.4-16 c0.6-2.9,1.299-5.9,1.899-8.8c0.8-3.7-2-7.3-5.899-7.3h-4.4c-2.7,0-5.1,1.8-5.801,4.4c-0.299,1.2-0.6,2.2-0.6,2.2 c-2.199-6.8-10.3-8.7-16.7-8.6c-8.4,0.1-16.1,4.4-21.7,10.5c-0.5,0.6-1.1,1.2-1.6,1.8c-2.9,3.5-5.1,7.6-6.6,11.9 c-1.6,4.6-2.4,9.3-2.4,14.1c0,4.101,0.6,8,1.7,11.5c1.2,3.601,2.9,6.7,5.1,9.3c2.2,2.601,5,4.7,8.3,6.2c3.3,1.5,7,2.3,11,2.3 c3,0,5.8-0.5,8.3-1.399c2.4-0.9,4.6-2,6.5-3.3c1.5-1,2.9-2.2,4-3.301c0.699,1.301,1.5,2.4,2.6,3.5c2.801,3,7.1,4.5,12.801,4.5 c4.5,0,8.899-0.899,13-2.699c4.1-1.801,7.799-4.601,10.899-8.2c3-3.601,5.5-8,7.3-13.2c1.801-5.2,2.7-11.2,2.7-17.8 c0-9-1.7-17-5-23.7s-7.8-12.4-13.399-16.9c-5.5-4.5-11.9-7.8-19-10.1C79.05,1.1,71.75,0,64.25,0c-8.7,0-17,1.6-24.7,4.7 c-7.7,3.2-14.5,7.6-20.2,13.1c-5.8,5.5-10.4,12.2-13.7,19.7c-3.3,7.5-5,15.9-5,24.7c0,8.899,1.5,17.3,4.6,24.8 C8.25,94.6,12.65,101.2,18.25,106.7z M72.349,64.7c-0.699,2.7-1.699,5.3-3.1,7.7c-1.4,2.3-3.1,4.199-5.3,5.699 c-2,1.4-4.4,2.101-7.4,2.101c-1.9,0-3.4-0.4-4.5-1.101c-1.2-0.8-2.2-1.8-2.9-3.1c-0.8-1.4-1.3-2.9-1.6-4.4 c-0.3-1.6-0.5-3.1-0.5-4.399c0-2.8,0.4-5.6,1.2-8.5c0.8-2.8,1.9-5.4,3.4-7.6c1.5-2.2,3.2-4,5.3-5.4c1.9-1.3,4-1.9,6.5-1.9 c2,0,3.601,0.3,4.8,1c1.2,0.7,2.2,1.6,2.9,2.7c0.8,1.2,1.3,2.6,1.699,4.1c0.4,1.7,0.601,3.5,0.601,5.2 C73.349,59.3,73.05,61.9,72.349,64.7z"/></symbol><symbol id="business" viewBox="0 0 611.996 611.996"><title>business</title><path d="M588.63,113.193L213.812,33.871c-15.858-3.355-31.576,6.876-34.931,22.734l-7.121,45.762l432.477,91.519l7.121-45.762 C614.713,132.272,604.488,116.549,588.63,113.193z"/><path d="M431.009,203.591c-4.378-15.766-20.854-25.085-36.615-20.714L323.24,202.63l-167.742-35.5l-18.448,87.165L21.786,286.287 c-15.76,4.372-25.079,20.848-20.708,36.609l64.958,234.078c4.378,15.76,20.855,25.085,36.615,20.708l372.608-103.403 c15.76-4.378,25.079-20.848,20.708-36.615l-11.15-40.184l41.789,8.835c15.858,3.361,31.576-6.87,34.931-22.728l26.439-124.937 L437.45,226.797L431.009,203.591z M474.04,322.559l9.215-43.552c1.384-6.521,7.85-10.727,14.37-9.35l43.552,9.221 c6.527,1.384,10.733,7.843,9.356,14.37l-9.215,43.552c-1.384,6.521-7.849,10.733-14.37,9.35l-43.552-9.215 C476.863,335.546,472.656,329.08,474.04,322.559z M28.27,309.646l103.115-28.606l243.299-67.517l26.181-7.274 c0.478-0.129,0.955-0.19,1.421-0.19c2.1,0,4.611,1.378,5.345,4.017l3.074,11.07l9.631,34.704L37.148,362.186l-12.705-45.768 C23.647,313.546,25.399,310.442,28.27,309.646z M472.601,444.141c0.49,1.776-0.024,3.245-0.545,4.164 c-0.514,0.918-1.506,2.119-3.282,2.608L96.173,554.316c-0.471,0.129-0.955,0.196-1.421,0.196c-2.1,0-4.611-1.384-5.345-4.023 L51.519,413.955l383.188-106.342l23.371,84.208L472.601,444.141z"/><path d="M156.379,453.484c-1.788-6.429-8.499-10.225-14.928-8.443l-43.515,12.08c-6.423,1.782-10.225,8.499-8.437,14.928 l12.074,43.509c1.788,6.429,8.499,10.225,14.928,8.437l43.515-12.074c6.429-1.782,10.225-8.499,8.443-14.928L156.379,453.484z"/></symbol><symbol id="calendar" viewBox="0 0 488.152 488.152"><title>calendar</title><path d="M177.854,269.311c0-6.115-4.96-11.069-11.08-11.069h-38.665c-6.113,0-11.074,4.954-11.074,11.069v38.66 c0,6.123,4.961,11.079,11.074,11.079h38.665c6.12,0,11.08-4.956,11.08-11.079V269.311L177.854,269.311z"/><path d="M274.483,269.311c0-6.115-4.961-11.069-11.069-11.069h-38.67c-6.113,0-11.074,4.954-11.074,11.069v38.66 c0,6.123,4.961,11.079,11.074,11.079h38.67c6.108,0,11.069-4.956,11.069-11.079V269.311z"/><path d="M371.117,269.311c0-6.115-4.961-11.069-11.074-11.069h-38.665c-6.12,0-11.08,4.954-11.08,11.069v38.66 c0,6.123,4.96,11.079,11.08,11.079h38.665c6.113,0,11.074-4.956,11.074-11.079V269.311z"/><path d="M177.854,365.95c0-6.125-4.96-11.075-11.08-11.075h-38.665c-6.113,0-11.074,4.95-11.074,11.075v38.653 c0,6.119,4.961,11.074,11.074,11.074h38.665c6.12,0,11.08-4.956,11.08-11.074V365.95L177.854,365.95z"/><path d="M274.483,365.95c0-6.125-4.961-11.075-11.069-11.075h-38.67c-6.113,0-11.074,4.95-11.074,11.075v38.653 c0,6.119,4.961,11.074,11.074,11.074h38.67c6.108,0,11.069-4.956,11.069-11.074V365.95z"/><path d="M371.117,365.95c0-6.125-4.961-11.075-11.069-11.075h-38.67c-6.12,0-11.08,4.95-11.08,11.075v38.653 c0,6.119,4.96,11.074,11.08,11.074h38.67c6.108,0,11.069-4.956,11.069-11.074V365.95L371.117,365.95z"/><path d="M440.254,54.354v59.05c0,26.69-21.652,48.198-48.338,48.198h-30.493c-26.688,0-48.627-21.508-48.627-48.198V54.142 h-137.44v59.262c0,26.69-21.938,48.198-48.622,48.198H96.235c-26.685,0-48.336-21.508-48.336-48.198v-59.05 C24.576,55.057,5.411,74.356,5.411,98.077v346.061c0,24.167,19.588,44.015,43.755,44.015h389.82 c24.131,0,43.755-19.889,43.755-44.015V98.077C482.741,74.356,463.577,55.057,440.254,54.354z M426.091,422.588 c0,10.444-8.468,18.917-18.916,18.917H80.144c-10.448,0-18.916-8.473-18.916-18.917V243.835c0-10.448,8.467-18.921,18.916-18.921 h327.03c10.448,0,18.916,8.473,18.916,18.921L426.091,422.588L426.091,422.588z"/><path d="M96.128,129.945h30.162c9.155,0,16.578-7.412,16.578-16.567V16.573C142.868,7.417,135.445,0,126.29,0H96.128 C86.972,0,79.55,7.417,79.55,16.573v96.805C79.55,122.533,86.972,129.945,96.128,129.945z"/><path d="M361.035,129.945h30.162c9.149,0,16.572-7.412,16.572-16.567V16.573C407.77,7.417,400.347,0,391.197,0h-30.162 c-9.154,0-16.577,7.417-16.577,16.573v96.805C344.458,122.533,351.881,129.945,361.035,129.945z"/></symbol><symbol id="cell-phone" viewBox="0 0 27.442 27.442"><title>cell-phone</title><path d="M19.494,0H7.948C6.843,0,5.951,0.896,5.951,1.999v23.446c0,1.102,0.892,1.997,1.997,1.997h11.546 c1.103,0,1.997-0.895,1.997-1.997V1.999C21.491,0.896,20.597,0,19.494,0z M10.872,1.214h5.7c0.144,0,0.261,0.215,0.261,0.481 s-0.117,0.482-0.261,0.482h-5.7c-0.145,0-0.26-0.216-0.26-0.482C10.612,1.429,10.727,1.214,10.872,1.214z M13.722,25.469 c-0.703,0-1.275-0.572-1.275-1.276s0.572-1.274,1.275-1.274c0.701,0,1.273,0.57,1.273,1.274S14.423,25.469,13.722,25.469z M19.995,21.1H7.448V3.373h12.547V21.1z"/></symbol><symbol id="facebook-placeholder-for-locate-places-on-maps" viewBox="0 0 430.114 430.114"><title>facebook-placeholder-for-locate-places-on-maps</title><path id="Facebook_Places" d="M356.208,107.051c-1.531-5.738-4.64-11.852-6.94-17.205C321.746,23.704,261.611,0,213.055,0 C148.054,0,76.463,43.586,66.905,133.427v18.355c0,0.766,0.264,7.647,0.639,11.089c5.358,42.816,39.143,88.32,64.375,131.136 c27.146,45.873,55.314,90.999,83.221,136.106c17.208-29.436,34.354-59.259,51.17-87.933c4.583-8.415,9.903-16.825,14.491-24.857 c3.058-5.348,8.9-10.696,11.569-15.672c27.145-49.699,70.838-99.782,70.838-149.104v-20.262 C363.209,126.938,356.581,108.204,356.208,107.051z M214.245,199.193c-19.107,0-40.021-9.554-50.344-35.939 c-1.538-4.2-1.414-12.617-1.414-13.388v-11.852c0-33.636,28.56-48.932,53.406-48.932c30.588,0,54.245,24.472,54.245,55.06 C270.138,174.729,244.833,199.193,214.245,199.193z"/></symbol><symbol id="facebook" viewBox="0 0 512 512"><title>facebook</title><path style="fill:#385C8E;" d="M134.941,272.691h56.123v231.051c0,4.562,3.696,8.258,8.258,8.258h95.159 c4.562,0,8.258-3.696,8.258-8.258V273.78h64.519c4.195,0,7.725-3.148,8.204-7.315l9.799-85.061c0.269-2.34-0.472-4.684-2.038-6.44 c-1.567-1.757-3.81-2.763-6.164-2.763h-74.316V118.88c0-16.073,8.654-24.224,25.726-24.224c2.433,0,48.59,0,48.59,0 c4.562,0,8.258-3.698,8.258-8.258V8.319c0-4.562-3.696-8.258-8.258-8.258h-66.965C309.622,0.038,308.573,0,307.027,0 c-11.619,0-52.006,2.281-83.909,31.63c-35.348,32.524-30.434,71.465-29.26,78.217v62.352h-58.918c-4.562,0-8.258,3.696-8.258,8.258 v83.975C126.683,268.993,130.379,272.691,134.941,272.691z"/></symbol><symbol id="football-player-inclined-to-front-flexed-on-knees" viewBox="0 0 468.261 468.26"><title>football-player-inclined-to-front-flexed-on-knees</title><path d="M353.02,221.89c4.448-1.287,9.133-2.008,13.994-2.008c2.597,0,5.125,0.26,7.618,0.635 c5.858,0.894,11.409,2.731,16.422,5.456l-1.987-23.267c-0.413-4.853-2.681-9.079-5.995-12.145 c-25.98-42.254-137.242-128.308-252.774-37.895c0,0-23.598,18.667-11.596,62.031l21.315-12.173 c4.391-2.508,9.374-3.835,14.429-3.835c1.477,0,2.968,0.12,4.429,0.339l52.952,8.173l40.503,6.252l15.172,2.338 c7.683,1.185,14.438,5.29,19.027,11.556c4.593,6.264,6.464,13.941,5.286,21.624c-1.587,10.279-8.656,18.675-17.882,22.454 c-0.497,0.208-1.01,0.384-1.53,0.568c-2.945,1.01-6.052,1.631-9.285,1.631c-1.495,0-3.006-0.111-4.477-0.344l-43.803-6.761 l19.871,49.676c3.148,8.841,2.473,18.346-1.555,26.513l22.374,1.663c0.729,0.053,1.462,0.085,2.184,0.085 c9.109,0,17.757-4.216,23.367-11.494c6.06-7.858,7.767-18.222,4.541-27.615l-10.997-31.959 c2.112,0.714,22.165-8.363,44.987-20.302C325.1,238.056,337.519,226.368,353.02,221.89z"/><polygon points="105.561,289.207 153.756,291.415 148.715,277.252 129.037,275.79 "/><path d="M468.261,282.767c0-10.376-8.407-18.775-18.774-18.775H417.09c0.269,2.108,0.449,4.244,0.449,6.424 c0,11.742-4.056,22.53-10.8,31.126h42.747C459.854,301.542,468.261,293.138,468.261,282.767z"/><path d="M367.014,314.682c12.295,0,23.419-5.037,31.446-13.141c7.91-7.99,12.804-18.983,12.804-31.126 c0-2.188-0.217-4.323-0.521-6.424c-1.835-12.599-8.924-23.483-19.031-30.302c-7.053-4.759-15.553-7.536-24.697-7.536 c-0.232,0-0.461,0.03-0.686,0.03c-4.444,0.072-8.732,0.777-12.771,2.058c-10.54,3.362-19.336,10.571-24.794,19.965 c-3.799,6.532-6.016,14.099-6.016,22.201C322.747,294.861,342.564,314.682,367.014,314.682z"/><path d="M0.029,318.376c-0.697,15.249,11.141,28.24,26.407,28.946l176.296,8.074c8.74,0,17.054-4.188,22.255-11.208 c0.463-0.63,0.726-1.343,1.13-2c4.412-7.125,5.551-15.802,2.711-23.776l-14.517-36.275l-6.688-16.73l-47.574-7.342l-9.543,5.458 l5.063,14.242l7.238,20.354l-67.419-3.103l-29.777,17.02c-4.216,2.413-8.989,3.703-13.833,3.8c-0.194,0-0.383,0.04-0.579,0.04 c-10.417,0-20.097-5.61-25.265-14.659c-1.575-2.758-2.557-5.735-3.162-8.769C10.291,294.701,0.628,305.272,0.029,318.376z"/><path d="M204.917,258.63l2.347,0.36l1.264,0.2l3.604,0.562l47.466,7.321c1.186,0.185,2.353,0.272,3.519,0.272 c0.404,0,0.789-0.084,1.194-0.112c2.66-0.14,5.213-0.729,7.59-1.735c7.041-2.974,12.451-9.365,13.709-17.477 c1.924-12.447-6.608-24.088-19.051-26.012l-10.287-1.587l-50.306-7.763l-13.511-2.09l-3.493-0.541l-31.042-4.791 c-1.154-0.181-2.314-0.265-3.468-0.265c-3.947,0-7.851,1.02-11.319,3.005l-22.478,12.844l-80.795,46.17 c-7.027,4.02-11.053,11.209-11.411,18.738c-0.05,1.042-0.028,2.084,0.068,3.134c0.096,1.046,0.323,2.072,0.555,3.098 c0.487,2.101,1.18,4.172,2.304,6.136c3.845,6.729,10.638,10.596,17.829,11.229c0.667,0.064,1.311,0.261,1.986,0.261 c0,0,0,0,0.006,0c3.829,0,7.724-0.966,11.289-3.006l21.179-12.102l5.087-2.906l5.085-2.913l23.992-13.718l24.988-14.282 l2.771-1.579l2.771-1.587l10.474-5.986L204.917,258.63z"/></symbol><symbol id="football-player-landing-on-field-missing-the-ball" viewBox="0 0 321.035 321.034"><title>football-player-landing-on-field-missing-the-ball</title><path d="M293.642,109.938c15.131,0,27.393,12.265,27.393,27.393s-12.262,27.392-27.393,27.392 c-15.125,0-27.393-12.264-27.393-27.392S278.517,109.938,293.642,109.938z"/><path d="M6.997,134.663c11.835,8.505,32.801,15.62,64.103,21.743c16.319,3.192,30.859,5.199,37.513,6.038l13.787,8.543 l-13.854-7.099L11.781,222.22c-7.948,4.795-10.506,15.12-5.717,23.063c3.154,5.23,8.707,8.13,14.4,8.13 c2.954,0,5.945-0.782,8.661-2.424l80.737-48.674l34.318,17.574l-0.652,0.829c28.573,19.045,70.904,10.231,100.911-1.077 l-0.01,0.082l-49.156,37.687c-7.363,5.649-8.756,16.197-3.106,23.556c3.309,4.313,8.3,6.581,13.344,6.581 c3.573,0,7.167-1.129,10.217-3.469l59.926-45.951l6.851-45.728c0.602-3.987-0.259-7.855-2.175-11.071 c-5.09-12.856-19.313-24.062-36.749-16.596l-34.507-23.314c-7.689-5.196-18.139-3.177-23.327,4.513 c-5.199,7.687-3.175,18.129,4.51,23.328l11.175,7.549c-3.755-0.466-7.006-1.336-9.673-2.289c-0.44-0.341-0.906-0.662-1.388-0.957 l-70.41-43.623l-3.749-0.425c-50.873-5.769-81.959-16.646-89.605-22.137c-7.534-5.419-18.033-3.697-23.446,3.837 C-2.256,118.746-0.538,129.244,6.997,134.663z"/><circle cx="90.944" cy="60.88" r="27.392"/></symbol><symbol id="football" viewBox="0 0 25.999 25.999"><title>football</title><path style="fill:#030104;" d="M15.536,14.894l-4.43-4.43c1.243-0.929,3.011-0.841,4.142,0.288 C16.377,11.883,16.465,13.65,15.536,14.894z M4.651,16.854L2.725,18.78l4.496,4.496l1.926-1.927L4.651,16.854z M21.349,9.147 l1.926-1.926l-4.496-4.495l-1.926,1.926L21.349,9.147z M0.799,16.853l1.284,1.285l2.568-2.568l5.78,5.779l-2.568,2.569l1.284,1.283 c1.064,1.064,2.788,1.064,3.853,0l5.778-5.778l-3.243-3.244c-1.604,1.28-3.94,1.197-5.425-0.289 c-1.486-1.484-1.569-3.82-0.289-5.425L6.578,7.222L0.799,13C-0.266,14.064-0.266,15.788,0.799,16.853z M10.752,15.248 c1.13,1.129,2.898,1.217,4.143,0.288l-4.431-4.43C9.535,12.351,9.623,14.118,10.752,15.248z M13,0.799l-5.778,5.78l3.242,3.242 c1.604-1.279,3.94-1.196,5.426,0.289s1.568,3.821,0.289,5.426l3.243,3.243L25.201,13c1.064-1.064,1.064-2.788,0-3.853l-1.284-1.284 l-2.568,2.568l-5.78-5.779l2.568-2.568l-1.284-1.285C15.788-0.266,14.064-0.266,13,0.799z"/></symbol><symbol id="info" viewBox="0 0 111.577 111.577"><title>info</title><path d="M78.962,99.536l-1.559,6.373c-4.677,1.846-8.413,3.251-11.195,4.217c-2.785,0.969-6.021,1.451-9.708,1.451 c-5.662,0-10.066-1.387-13.207-4.142c-3.141-2.766-4.712-6.271-4.712-10.523c0-1.646,0.114-3.339,0.351-5.064 c0.239-1.727,0.619-3.672,1.139-5.846l5.845-20.688c0.52-1.981,0.962-3.858,1.316-5.633c0.359-1.764,0.532-3.387,0.532-4.848 c0-2.642-0.547-4.49-1.636-5.529c-1.089-1.036-3.167-1.562-6.252-1.562c-1.511,0-3.064,0.242-4.647,0.71 c-1.59,0.47-2.949,0.924-4.09,1.346l1.563-6.378c3.829-1.559,7.489-2.894,10.99-4.002c3.501-1.111,6.809-1.667,9.938-1.667 c5.623,0,9.962,1.359,13.009,4.077c3.047,2.72,4.57,6.246,4.57,10.591c0,0.899-0.1,2.483-0.315,4.747 c-0.21,2.269-0.601,4.348-1.171,6.239l-5.82,20.605c-0.477,1.655-0.906,3.547-1.279,5.676c-0.385,2.115-0.569,3.731-0.569,4.815 c0,2.736,0.61,4.604,1.833,5.597c1.232,0.993,3.354,1.487,6.368,1.487c1.415,0,3.025-0.251,4.814-0.744 C76.854,100.348,78.155,99.915,78.962,99.536z M80.438,13.03c0,3.59-1.353,6.656-4.072,9.177c-2.712,2.53-5.98,3.796-9.803,3.796 c-3.835,0-7.111-1.266-9.854-3.796c-2.738-2.522-4.11-5.587-4.11-9.177c0-3.583,1.372-6.654,4.11-9.207 C59.447,1.274,62.729,0,66.563,0c3.822,0,7.091,1.277,9.803,3.823C79.087,6.376,80.438,9.448,80.438,13.03z"/></symbol><symbol id="interface" viewBox="0 0 511.626 511.626"><title>interface</title><path d="M54.818,200.999c-15.23,0-28.171,5.327-38.832,15.987C5.33,227.642,0,240.583,0,255.813c0,15.223,5.33,28.172,15.99,38.83 c10.66,10.656,23.604,15.984,38.832,15.984c15.225,0,28.167-5.328,38.828-15.984c10.657-10.657,15.987-23.606,15.987-38.83 c0-15.23-5.33-28.171-15.99-38.828C82.989,206.329,70.046,200.999,54.818,200.999z"/><path d="M54.821,54.817c-15.23,0-28.171,5.33-38.832,15.987C5.333,81.464,0.003,94.405,0.003,109.632 c0,15.229,5.327,28.171,15.986,38.831c10.66,10.657,23.604,15.985,38.832,15.985c15.225,0,28.167-5.329,38.828-15.985 c10.657-10.66,15.987-23.603,15.987-38.831c0-15.227-5.33-28.168-15.987-38.828C82.993,60.147,70.051,54.817,54.821,54.817z"/><path d="M54.821,347.18c-15.23,0-28.175,5.325-38.832,15.981C5.333,373.824,0.003,386.767,0.003,401.989 c0,15.235,5.327,28.171,15.986,38.834c10.66,10.657,23.604,15.985,38.832,15.985c15.225,0,28.167-5.328,38.828-15.985 c10.657-10.663,15.987-23.599,15.987-38.834c0-15.223-5.33-28.172-15.987-38.828C82.993,352.505,70.051,347.18,54.821,347.18z"/><path d="M508.917,75.8c-1.813-1.803-3.949-2.708-6.427-2.708H155.313c-2.473,0-4.615,0.902-6.423,2.708 c-1.807,1.812-2.712,3.949-2.712,6.423v54.821c0,2.475,0.905,4.611,2.712,6.424c1.809,1.805,3.951,2.708,6.423,2.708H502.49 c2.478,0,4.616-0.9,6.427-2.708c1.81-1.812,2.71-3.949,2.71-6.424V82.224C511.626,79.75,510.723,77.609,508.917,75.8z"/><path d="M502.49,219.271H155.313c-2.473,0-4.615,0.9-6.423,2.712c-1.807,1.807-2.712,3.949-2.712,6.423v54.819 c0,2.472,0.905,4.613,2.712,6.421c1.809,1.813,3.951,2.714,6.423,2.714H502.49c2.478,0,4.616-0.9,6.427-2.714 c1.81-1.808,2.71-3.949,2.71-6.421v-54.819c0-2.474-0.903-4.62-2.71-6.423C507.103,220.175,504.967,219.271,502.49,219.271z"/><path d="M502.49,365.447H155.313c-2.473,0-4.615,0.903-6.423,2.714c-1.807,1.81-2.712,3.949-2.712,6.42V429.4 c0,2.478,0.905,4.616,2.712,6.427c1.809,1.807,3.951,2.707,6.423,2.707H502.49c2.478,0,4.616-0.9,6.427-2.707 c1.81-1.811,2.71-3.949,2.71-6.427v-54.819c0-2.471-0.903-4.617-2.71-6.42C507.103,366.357,504.967,365.447,502.49,365.447z"/></symbol><symbol id="locked-padlock" viewBox="0 0 486.733 486.733"><title>locked-padlock</title><path d="M403.88,196.563h-9.484v-44.388c0-82.099-65.151-150.681-146.582-152.145c-2.225-0.04-6.671-0.04-8.895,0 C157.486,1.494,92.336,70.076,92.336,152.175v44.388h-9.485c-14.616,0-26.538,15.082-26.538,33.709v222.632 c0,18.606,11.922,33.829,26.539,33.829h321.028c14.616,0,26.539-15.223,26.539-33.829V230.272 C430.419,211.646,418.497,196.563,403.88,196.563z M273.442,341.362v67.271c0,7.703-6.449,14.222-14.158,14.222H227.45 c-7.71,0-14.159-6.519-14.159-14.222v-67.271c-7.477-7.36-11.83-17.537-11.83-28.795c0-21.334,16.491-39.666,37.459-40.513 c2.222-0.09,6.673-0.09,8.895,0c20.968,0.847,37.459,19.179,37.459,40.513C285.272,323.825,280.919,334.002,273.442,341.362z M331.886,196.563h-84.072h-8.895h-84.072v-44.388c0-48.905,39.744-89.342,88.519-89.342c48.775,0,88.521,40.437,88.521,89.342 V196.563z"/></symbol><symbol id="logout-outlined-button" viewBox="0 0 591.737 591.738"><title>logout-outlined-button</title><path d="M533.097,143.131H413.036c-16.666-14.762-35.594-27.171-56.59-37.062c-30.13-14.194-64.74-23.255-103.167-27.036v-16.49 c0-8.247-1.676-16.207-4.983-23.657c-3.156-7.111-7.646-13.419-13.346-18.75C224.08,9.971,209.904,4.373,195.033,4.373 c-15.131,0-29.485,5.853-40.418,16.48L18.116,153.535c-5.729,5.568-10.176,12.128-13.217,19.495 c-2.924,7.084-4.404,14.566-4.398,22.24c0.006,7.673,1.497,15.154,4.433,22.232c3.053,7.362,7.51,13.915,13.248,19.475 l116.312,112.711v179.535c0,32.059,26.082,58.141,58.14,58.141h340.466c32.058,0,58.14-26.082,58.14-58.141V201.271 C591.236,169.213,565.155,143.131,533.097,143.131z M47.976,184.254L184.474,51.572c3.097-3.011,6.865-4.36,10.558-4.36 c7.872,0,15.406,6.124,15.406,15.331v42.265c0,8.236,6.521,15.002,14.751,15.287c44.565,1.543,80.435,10.091,109.306,23.036 c25.521,11.442,45.571,26.32,61.313,42.84c40.75,42.763,52.646,96.518,55.897,130.089c0.927,9.572-6.798,16.764-15.263,16.764 c-2.745,0-5.566-0.756-8.198-2.432c-34.053-21.697-103.047-56.103-201.972-59.483c-0.178-0.006-0.356-0.009-0.533-0.009 c-8.415,0-15.303,6.822-15.303,15.303v41.294c0,9.205-7.534,15.33-15.405,15.33c-3.687,0-7.446-1.342-10.542-4.342l-7.159-6.938 l-42.84-41.515l-86.499-83.821C41.796,200.208,41.788,190.269,47.976,184.254z M548.396,529.224c0,8.451-6.85,15.301-15.3,15.301 H192.632c-8.45,0-15.3-6.85-15.3-15.301V382.882c5.663,1.824,11.617,2.787,17.701,2.787c14.873,0,29.049-5.6,39.919-15.768 c5.699-5.33,10.188-11.639,13.344-18.746c3.306-7.451,4.983-15.41,4.983-23.656v-11.803 c74.381,7.803,126.229,34.438,151.947,50.824c9.389,5.982,20.184,9.143,31.219,9.143c16.383,0,32.114-6.979,43.162-19.146 c10.944-12.055,16.317-28.307,14.74-44.588c-3.279-33.872-13.67-81.691-43.713-125.959h82.464c8.449,0,15.3,6.85,15.3,15.3 L548.396,529.224L548.396,529.224z"/><path d="M533.098,587.865H192.632c-32.334,0-58.64-26.306-58.64-58.641V349.901L17.833,237.336 c-5.787-5.607-10.282-12.216-13.362-19.643c-2.96-7.138-4.464-14.682-4.471-22.423c-0.005-7.74,1.487-15.287,4.437-22.431 c3.068-7.432,7.553-14.047,13.331-19.663L154.266,20.495c11.027-10.719,25.505-16.622,40.767-16.622 c14.999,0,29.296,5.646,40.258,15.898c5.75,5.377,10.279,11.74,13.462,18.913c3.335,7.514,5.026,15.542,5.026,23.859V78.58 c38.273,3.81,72.884,12.905,102.88,27.037c20.888,9.84,39.917,22.292,56.566,37.015h119.871c32.334,0,58.64,26.306,58.641,58.64 v327.953C591.737,561.559,565.432,587.865,533.098,587.865z M195.033,4.873c-15,0-29.23,5.803-40.07,16.339L18.464,153.894 c-5.679,5.52-10.088,12.023-13.104,19.328c-2.898,7.022-4.366,14.44-4.36,22.048c0.006,7.609,1.485,15.025,4.395,22.042 c3.027,7.3,7.446,13.795,13.134,19.308l116.463,112.858v179.747c0,31.783,25.857,57.641,57.64,57.641h340.466 c31.782,0,57.64-25.857,57.64-57.641V201.271c-0.001-31.783-25.858-57.64-57.641-57.64h-120.25l-0.142-0.125 c-16.612-14.714-35.611-27.158-56.472-36.985c-30.011-14.137-64.666-23.218-103.003-26.99l-0.451-0.044V62.543 c0-8.177-1.662-16.068-4.94-23.454c-3.128-7.049-7.58-13.303-13.231-18.588C223.832,10.423,209.777,4.873,195.033,4.873z M533.097,545.025H192.632c-8.712,0-15.8-7.088-15.8-15.801V382.196l0.653,0.211c5.691,1.833,11.595,2.763,17.548,2.763 c14.745,0,28.8-5.552,39.577-15.633c5.648-5.281,10.099-11.534,13.229-18.584c3.278-7.389,4.94-15.279,4.94-23.453v-12.358 l0.552,0.059c75.284,7.897,127.649,35.28,152.163,50.899c9.307,5.93,20.009,9.064,30.95,9.064 c16.241,0,31.839-6.919,42.792-18.982c10.851-11.951,16.176-28.062,14.612-44.204c-3.165-32.692-13.304-81.042-43.629-125.727 l-0.529-0.781h83.407c8.712,0,15.8,7.088,15.8,15.8v327.954C548.896,537.937,541.809,545.025,533.097,545.025z M177.832,383.565 v145.659c0,8.161,6.639,14.801,14.8,14.801h340.465c8.161,0,14.8-6.64,14.8-14.801l0.001-327.954c0-8.161-6.64-14.8-14.8-14.8 h-81.522c30.034,44.641,40.111,92.793,43.27,125.412c1.59,16.421-3.829,32.812-14.868,44.972 c-11.143,12.272-27.009,19.311-43.532,19.311c-11.132,0-22.021-3.188-31.487-9.221c-24.38-15.534-76.393-42.739-151.178-50.69 V327.5c0,8.314-1.691,16.342-5.026,23.859c-3.185,7.173-7.713,13.534-13.459,18.908c-10.963,10.255-25.261,15.902-40.26,15.902 C189.204,386.169,183.42,385.293,177.832,383.565z M195.033,343.328c-4.098,0-7.864-1.55-10.891-4.482L47.645,206.571 c-3.095-2.999-4.801-7.024-4.805-11.334c-0.003-4.31,1.697-8.337,4.788-11.341L184.125,51.213 c3.029-2.945,6.801-4.501,10.907-4.501c9.956,0,15.906,8.049,15.906,15.831v42.265c0,8.015,6.268,14.511,14.269,14.788 c41.721,1.445,78.56,9.21,109.493,23.08c23.799,10.669,44.48,25.121,61.472,42.952c39.934,41.907,52.513,94.035,56.033,130.386 c0.434,4.485-0.968,8.763-3.947,12.044c-3.039,3.348-7.345,5.268-11.813,5.268c-2.96,0-5.888-0.868-8.467-2.51 c-32.523-20.723-101.978-55.997-201.72-59.405c-0.171-0.005-0.344-0.008-0.516-0.008c-8.162,0-14.803,6.641-14.803,14.803v41.294 C210.938,335.279,204.989,343.328,195.033,343.328z M195.032,47.712c-3.84,0-7.371,1.458-10.209,4.218L48.325,184.612 c-2.895,2.814-4.488,6.587-4.485,10.624s1.602,7.808,4.5,10.617l136.498,132.273c2.836,2.748,6.361,4.201,10.194,4.201 c9.33,0,14.905-7.54,14.905-14.83v-41.294c0-8.896,7.39-16.103,16.352-15.793c99.98,3.416,169.614,38.783,202.224,59.561 c2.418,1.54,5.16,2.354,7.93,2.354c4.188,0,8.224-1.801,11.073-4.939c2.787-3.07,4.099-7.075,3.691-11.276 c-3.505-36.193-16.023-88.091-55.762-129.792c-16.9-17.736-37.477-32.112-61.155-42.729 c-30.815-13.816-67.528-21.552-109.119-22.993c-8.543-0.295-15.234-7.229-15.234-15.787V62.542 C209.938,55.252,204.362,47.712,195.032,47.712z"/></symbol><symbol id="logout-outlined-square-button-with-right-arrow" viewBox="0 0 591.736 591.736"><title>logout-outlined-square-button-with-right-arrow</title><path d="M58.64,587.364h340.466c32.059,0,58.141-26.082,58.141-58.141V349.688l116.311-112.711 c5.738-5.559,10.195-12.112,13.248-19.474c2.936-7.079,4.426-14.56,4.432-22.233c0.008-7.674-1.473-15.156-4.396-22.239 c-3.043-7.368-7.488-13.927-13.219-19.496l-136.5-132.683c-10.932-10.626-25.283-16.479-40.414-16.48l0,0 c-14.873-0.001-29.049,5.597-39.92,15.764c-5.701,5.331-10.191,11.64-13.346,18.75c-3.307,7.45-4.984,15.41-4.984,23.657v16.49 c-38.426,3.781-73.036,12.842-103.167,27.036c-20.997,9.891-39.924,22.3-56.59,37.062H58.64c-32.058,0-58.14,26.082-58.14,58.14 v327.953C0.5,561.282,26.581,587.364,58.64,587.364z M381.299,104.807V62.542c0-9.207,7.533-15.331,15.404-15.331 c3.693,0,7.461,1.349,10.559,4.36L543.76,184.254c6.188,6.015,6.182,15.954-0.016,21.958l-86.5,83.821l-42.84,41.514 l-7.158,6.938c-3.098,3-6.855,4.344-10.543,4.344c-7.871,0-15.404-6.127-15.404-15.33v-41.295c0-8.48-6.889-15.304-15.305-15.303 c-0.176,0-0.354,0.003-0.533,0.009c-98.924,3.38-167.918,37.785-201.971,59.482c-2.632,1.678-5.453,2.434-8.198,2.434 c-8.464,0-16.189-7.191-15.262-16.766c3.251-33.571,15.147-87.325,55.897-130.089c15.743-16.521,35.793-31.398,61.313-42.84 c28.871-12.945,64.74-21.493,109.306-23.037C374.777,119.81,381.299,113.042,381.299,104.807z M43.34,201.271 c0-8.45,6.85-15.3,15.3-15.3h82.463c-30.043,44.269-40.433,92.087-43.713,125.96c-1.576,16.279,3.797,32.531,14.742,44.586 c11.047,12.168,26.778,19.148,43.161,19.148c11.035,0,21.831-3.162,31.218-9.143c25.718-16.389,77.574-43.023,151.947-50.826 v11.803c0,8.246,1.678,16.205,4.984,23.656c3.154,7.109,7.645,13.416,13.344,18.746c10.869,10.168,25.045,15.768,39.918,15.768 c6.084,0,12.039-0.963,17.701-2.785v146.342c0,8.449-6.85,15.299-15.299,15.299H58.64c-8.45,0-15.3-6.85-15.3-15.299V201.271z"/><path d="M399.105,587.864H58.64C26.306,587.864,0,561.559,0,529.224V201.271c0-32.334,26.306-58.64,58.64-58.64h119.872 c16.65-14.724,35.679-27.176,56.566-37.015c29.998-14.131,64.608-23.227,102.879-27.037V62.542 c0-8.316,1.691-16.343,5.027-23.859c3.182-7.172,7.711-13.536,13.461-18.913c10.963-10.252,25.26-15.898,40.256-15.898 c15.267,0.001,29.743,5.904,40.769,16.622l136.5,132.683c5.776,5.614,10.262,12.229,13.332,19.663 c2.95,7.147,4.442,14.694,4.435,22.431c-0.006,7.741-1.51,15.286-4.47,22.424c-3.08,7.427-7.575,14.036-13.362,19.642 L457.746,349.9v179.323C457.746,561.559,431.44,587.864,399.105,587.864z M58.64,143.63C26.857,143.63,1,169.488,1,201.271 v327.953c0,31.783,25.857,57.641,57.64,57.641h340.466c31.783,0,57.641-25.857,57.641-57.641V349.477l0.152-0.147 l116.311-112.711c5.688-5.511,10.106-12.006,13.134-19.307c2.909-7.017,4.388-14.433,4.394-22.042 c0.008-7.605-1.459-15.023-4.358-22.048c-3.018-7.307-7.427-13.81-13.105-19.328l-136.5-132.683 c-10.838-10.535-25.066-16.338-40.065-16.339c-14.748,0-28.802,5.55-39.578,15.629c-5.652,5.285-10.104,11.539-13.23,18.587 c-3.279,7.388-4.941,15.279-4.941,23.454v16.943l-0.451,0.044c-38.336,3.772-72.991,12.853-103.002,26.99 c-20.859,9.827-39.859,22.27-56.471,36.985l-0.142,0.125H58.64z M399.105,545.024H58.64c-8.712,0-15.8-7.087-15.8-15.799V201.271 c0-8.712,7.088-15.8,15.8-15.8h83.407l-0.53,0.781c-30.323,44.681-40.462,93.033-43.629,125.727 c-1.562,16.141,3.764,32.251,14.614,44.202c10.954,12.064,26.55,18.984,42.791,18.984c10.939,0,21.641-3.135,30.949-9.064 c24.512-15.619,76.874-43.003,152.164-50.901l0.552-0.059v12.358c0,8.174,1.662,16.064,4.941,23.453 c3.126,7.046,7.576,13.299,13.229,18.584c10.776,10.081,24.831,15.633,39.576,15.633c5.951,0,11.855-0.929,17.548-2.761 l0.653-0.211v147.028C414.904,537.938,407.817,545.024,399.105,545.024z M58.64,186.471c-8.161,0-14.8,6.639-14.8,14.8v327.955 c0,8.16,6.639,14.799,14.8,14.799h340.466c8.16,0,14.799-6.639,14.799-14.799v-145.66c-5.59,1.728-11.373,2.604-17.201,2.604 c-15,0-29.298-5.647-40.26-15.902c-5.75-5.378-10.278-11.739-13.459-18.908c-3.336-7.518-5.027-15.545-5.027-23.859v-11.247 c-74.791,7.952-126.801,35.157-151.179,50.692c-9.469,6.032-20.356,9.221-31.486,9.221c-16.522,0-32.388-7.039-43.531-19.312 c-11.04-12.159-16.459-28.55-14.869-44.97c3.159-32.621,13.238-80.775,43.27-125.412H58.64z M396.703,343.329 c-9.955,0-15.904-8.049-15.904-15.83v-41.295c0-3.96-1.545-7.682-4.35-10.478c-2.798-2.79-6.511-4.325-10.455-4.325 c-0.17,0-0.342,0.003-0.516,0.009c-99.742,3.408-169.196,38.682-201.72,59.404c-2.578,1.644-5.505,2.512-8.467,2.512 c-4.469,0-8.774-1.92-11.813-5.267c-2.979-3.282-4.381-7.561-3.946-12.047c3.52-36.351,16.099-88.479,56.033-130.386 c16.991-17.831,37.673-32.282,61.471-42.951c30.935-13.87,67.773-21.635,109.493-23.08c8.002-0.277,14.27-6.772,14.27-14.788 V62.542c0-7.782,5.948-15.831,15.903-15.831c4.106,0,7.879,1.557,10.908,4.501l136.498,132.682 c3.091,3.004,4.791,7.033,4.788,11.344c-0.004,4.309-1.71,8.333-4.805,11.332L407.594,338.845 C404.564,341.778,400.799,343.329,396.703,343.329z M365.994,270.4c4.211,0,8.175,1.64,11.161,4.617 c2.994,2.985,4.644,6.958,4.644,11.186v41.295c0,7.29,5.575,14.83,14.904,14.83c3.831,0,7.356-1.453,10.195-4.203 l136.498-132.272c2.898-2.809,4.496-6.579,4.5-10.615c0.003-4.038-1.59-7.812-4.485-10.626L406.913,51.93 c-2.839-2.76-6.369-4.218-10.21-4.218c-9.329,0-14.904,7.541-14.904,14.831v42.265c0,8.557-6.691,15.491-15.234,15.787 c-41.591,1.44-78.303,9.177-109.119,22.993c-23.679,10.616-44.255,24.992-61.156,42.729 c-39.737,41.701-52.256,93.599-55.761,129.792c-0.407,4.202,0.904,8.208,3.692,11.278c2.85,3.14,6.885,4.939,11.072,4.939 c2.771,0,5.513-0.814,7.93-2.355c32.609-20.777,102.243-56.144,202.222-59.56C365.629,270.403,365.812,270.4,365.994,270.4z"/></symbol><symbol id="message-closed-envelope" viewBox="0 0 382.117 382.117"><title>message-closed-envelope</title><path d="M336.764,45.945H45.354C20.346,45.945,0,65.484,0,89.5v203.117c0,24.016,20.346,43.555,45.354,43.555h291.41 c25.008,0,45.353-19.539,45.353-43.555V89.5C382.117,65.484,361.772,45.945,336.764,45.945z M336.764,297.72H45.354 c-3.676,0-6.9-2.384-6.9-5.103V116.359l131.797,111.27c2.702,2.282,6.138,3.538,9.676,3.538l22.259,0.001 c3.536,0,6.974-1.257,9.677-3.539l131.803-111.274v176.264C343.664,295.336,340.439,297.72,336.764,297.72z M191.059,192.987 L62.87,84.397h256.378L191.059,192.987z"/></symbol><symbol id="money" viewBox="0 0 424.98 424.98"><title>money</title><g> <path d="M241.395,282.304c-1.587-1.738-3.595-3.038-5.67-4.121c-4.518-2.356-9.459-3.785-14.365-5.075v38.016 c7.963-0.9,17.105-3.79,21.286-11.224l0,0c1.996-3.551,2.393-7.914,1.58-11.867C243.785,285.891,242.874,283.925,241.395,282.304 z"/> </g><g> <path d="M242.604,299.973c0.016-0.027,0.025-0.044,0.042-0.073l0,0C242.632,299.924,242.618,299.948,242.604,299.973z"/> </g><g> <path d="M184.009,221.532c-1.369,1.999-2.228,4.27-2.465,6.684c-0.237,2.419-0.104,5.11,0.815,7.387 c0.875,2.17,2.708,3.772,4.6,5.062c2.123,1.444,4.458,2.572,6.836,3.528c1.995,0.803,4.239,1.571,6.658,2.313v-34.4 C194.342,213.41,187.665,216.194,184.009,221.532z"/> </g><g> <path d="M242.804,299.619c-0.05,0.089-0.104,0.182-0.157,0.28l0,0C242.709,299.785,242.758,299.701,242.804,299.619z"/> </g><g> <path d="M243.004,299.263C243.017,299.239,243.019,299.237,243.004,299.263L243.004,299.263z"/> </g><g> <path d="M234.753,92.469c32.329-27.158,53.931-88.341,40.637-91.017c-17.664-3.557-56.022,12.04-74.562,14.788 c-26.296,3.175-54.936-28.515-71.012-10.851c-13.071,14.362,9.371,66.592,44.482,89.346 C69.546,146.219-77.69,404.673,179.171,423.426C534.582,449.375,356.615,142.639,234.753,92.469z M265.276,296.298 c-1.093,10.076-6.433,19.188-14.415,25.374c-8.428,6.532-18.999,9.57-29.502,10.421v11.133c0,2.979-1.301,5.86-3.531,7.832 c-3.065,2.712-7.569,3.381-11.289,1.667c-3.673-1.69-6.086-5.457-6.086-9.499v-12.168c-1.801-0.342-3.589-0.749-5.356-1.234 c-9.816-2.697-18.921-7.954-25.572-15.732c-3.313-3.877-6.014-8.276-7.882-13.025c-0.488-1.241-0.923-2.505-1.304-3.783 c-0.345-1.157-0.701-2.333-0.824-3.539c-0.207-2.023,0.194-4.087,1.137-5.889c1.938-3.707,6.022-5.946,10.192-5.574 c4.104,0.364,7.701,3.212,8.993,7.124c0.398,1.205,0.668,2.44,1.115,3.632c0.443,1.184,0.978,2.335,1.607,3.431 c1.242,2.158,2.798,4.148,4.59,5.875c3.694,3.559,8.399,5.872,13.304,7.248v-41.362c-9.591-2.483-19.491-5.69-27.411-11.848 c-3.849-2.994-7.115-6.714-9.254-11.117c-2.257-4.647-3.192-9.824-3.23-14.966c-0.039-5.221,0.953-10.396,3.131-15.153 c2.04-4.454,4.977-8.453,8.578-11.768c7.7-7.087,17.928-11.04,28.187-12.492v-0.91v-10.647c0-2.978,1.301-5.86,3.531-7.832 c3.066-2.711,7.568-3.381,11.289-1.667c3.672,1.691,6.086,5.457,6.086,9.499v10.647v0.847c1.367,0.172,2.73,0.378,4.086,0.624 c10.074,1.823,19.927,5.983,27.294,13.246c3.49,3.44,6.347,7.539,8.356,12.009c0.561,1.247,1.052,2.523,1.477,3.824 c0.396,1.213,0.794,2.462,0.983,3.728c0.302,2.021-0.006,4.109-0.871,5.958c-1.772,3.788-5.746,6.2-9.927,6.021 c-4.108-0.179-7.83-2.854-9.301-6.694c-0.438-1.142-0.657-2.351-1.104-3.49c-0.451-1.153-1.035-2.253-1.708-3.292 c-1.308-2.02-3.003-3.752-4.938-5.179c-4.19-3.094-9.272-4.706-14.35-5.607v39.582c6.035,1.445,12.075,3.021,17.857,5.301 c8.739,3.446,17.02,8.73,21.79,17.062c-0.74-1.298-1.46-2.563,0.025,0.043c1.458,2.56,0.762,1.34,0.03,0.057 C264.854,280.704,266.101,288.701,265.276,296.298z"/> </g><g> <path d="M242.493,300.169c-0.061,0.109-0.114,0.205-0.156,0.278C242.373,300.384,242.427,300.289,242.493,300.169z"/> </g></symbol><symbol id="pencil-edit-button" viewBox="0 0 528.899 528.899"><title>pencil-edit-button</title><path d="M328.883,89.125l107.59,107.589l-272.34,272.34L56.604,361.465L328.883,89.125z M518.113,63.177l-47.981-47.981 c-18.543-18.543-48.653-18.543-67.259,0l-45.961,45.961l107.59,107.59l53.611-53.611 C532.495,100.753,532.495,77.559,518.113,63.177z M0.3,512.69c-1.958,8.812,5.998,16.708,14.811,14.565l119.891-29.069 L27.473,390.597L0.3,512.69z"/></symbol><symbol id="soccer-ball-variant" viewBox="0 0 72.371 72.372"><title>soccer-ball-variant</title><path d="M22.57,2.648c-4.489,1.82-8.517,4.496-11.971,7.949C7.144,14.051,4.471,18.08,2.65,22.568C0.892,26.904,0,31.486,0,36.186 c0,4.699,0.892,9.281,2.65,13.615c1.821,4.489,4.495,8.518,7.949,11.971c3.454,3.455,7.481,6.129,11.971,7.949 c4.336,1.76,8.917,2.649,13.617,2.649c4.7,0,9.28-0.892,13.616-2.649c4.488-1.82,8.518-4.494,11.971-7.949 c3.455-3.453,6.129-7.48,7.949-11.971c1.758-4.334,2.648-8.916,2.648-13.615c0-4.7-0.891-9.282-2.648-13.618 c-1.82-4.488-4.496-8.518-7.949-11.971s-7.479-6.129-11.971-7.949C45.467,0.891,40.887,0,36.187,0 C31.487,0,26.906,0.891,22.57,2.648z M9.044,51.419c-1.743-1.094-3.349-2.354-4.771-3.838c-2.172-6.112-2.54-12.729-1.101-19.01 c0.677-1.335,1.447-2.617,2.318-3.845c0.269-0.379,0.518-0.774,0.806-1.142l8.166,4.832c0,0.064,0,0.134,0,0.205 c-0.021,4.392,0.425,8.752,1.313,13.049c0.003,0.02,0.006,0.031,0.01,0.049l-6.333,9.93C9.314,51.579,9.177,51.503,9.044,51.419z M33.324,68.206c1.409,0.719,2.858,1.326,4.347,1.82c-6.325,0.275-12.713-1.207-18.36-4.447L33,68.018 C33.105,68.085,33.212,68.149,33.324,68.206z M33.274,65.735L17.12,62.856c-1.89-2.295-3.59-4.723-5.051-7.318 c-0.372-0.66-0.787-1.301-1.102-1.99l6.327-9.92c0.14,0.035,0.296,0.072,0.473,0.119c3.958,1.059,7.986,1.812,12.042,2.402 c0.237,0.033,0.435,0.062,0.604,0.08l7.584,13.113c-1.316,1.85-2.647,3.69-4.007,5.51C33.764,65.155,33.524,65.446,33.274,65.735z M60.15,60.149c-1.286,1.287-2.651,2.447-4.08,3.481c-0.237-1.894-0.646-3.75-1.223-5.563l8.092-15.096 c2.229-1.015,4.379-2.166,6.375-3.593c0.261-0.185,0.478-0.392,0.646-0.618C69.374,46.561,66.104,54.196,60.15,60.149z M59.791,40.571c0.301,0.574,0.598,1.154,0.896,1.742l-7.816,14.58c-0.045,0.01-0.088,0.02-0.133,0.026 c-4.225,0.789-8.484,1.209-12.779,1.229l-7.8-13.487c1.214-2.254,2.417-4.517,3.61-6.781c0.81-1.536,1.606-3.082,2.401-4.627 l16.143-1.658C56.29,34.495,58.163,37.457,59.791,40.571z M56.516,23.277c-0.766,2.023-1.586,4.025-2.401,6.031l-15.726,1.615 c-0.188-0.248-0.383-0.492-0.588-0.725c-1.857-2.103-3.726-4.193-5.592-6.289c0.017-0.021,0.034-0.037,0.051-0.056 c-0.753-0.752-1.508-1.504-2.261-2.258l4.378-13.181c0.302-0.08,0.606-0.147,0.913-0.18c2.38-0.242,4.763-0.516,7.149-0.654 c1.461-0.082,2.93-0.129,4.416-0.024l10.832,12.209C57.314,20.943,56.95,22.124,56.516,23.277z M60.15,12.221 c2.988,2.99,5.302,6.402,6.938,10.047c-2.024-1.393-4.188-2.539-6.463-3.473c-0.354-0.146-0.717-0.275-1.086-0.402L48.877,6.376 c0.074-0.519,0.113-1.039,0.129-1.563C53.062,6.464,56.864,8.936,60.15,12.221z M25.334,4.182c0.042,0.031,0.062,0.057,0.086,0.064 c2.437,0.842,4.654,2.082,6.744,3.553l-4.09,12.317c-0.021,0.006-0.041,0.012-0.061,0.021c-0.837,0.346-1.69,0.656-2.514,1.031 c-3.395,1.543-6.705,3.252-9.823,5.301l-8.071-4.775c0.012-0.252,0.055-0.508,0.141-0.736c0.542-1.444,1.075-2.896,1.688-4.311 c0.472-1.09,1.01-2.143,1.597-3.172c0.384-0.424,0.782-0.844,1.192-1.254c3.833-3.832,8.363-6.553,13.186-8.162 C25.384,4.098,25.358,4.139,25.334,4.182z"/></symbol><symbol id="soccer-player" viewBox="0 0 51.798 51.798"><title>soccer-player</title><circle style="fill:#010002;" cx="30.563" cy="4.754" r="4.754"/><circle style="fill:#010002;" cx="8.493" cy="36.964" r="4.002"/><path style="fill:#010002;" d="M47.259,26.37c-1.654-9.193-8.684-14.797-17.738-15.824c-0.416-0.047-0.778-0.007-1.092,0.098 c-0.293-0.092-0.627-0.132-1.007-0.098c-4.129,0.367-7.68,3.463-10.246,6.538c-2.151,2.576,1.538,6.308,3.708,3.708 c1.098-1.315,2.765-3.258,4.546-4.296c0.015,0.049,0.023,0.099,0.04,0.149c1.153,3.42,1.483,6.792,1.15,10.368 c-1.289,0.502-2.549,1.099-3.786,1.742c-1.655,0.862-3.702,1.751-4.357,3.61c-1.314,3.729-2.629,7.457-3.943,11.185 c-1.127,3.198,3.941,4.562,5.058,1.396c1.223-3.469,2.445-6.938,3.668-10.404c1.814-1.16,3.834-2.289,5.926-2.986 c0.652,0.342,1.371,0.543,2.08,0.557c0.049,0,0.094-0.004,0.142-0.006c0.301,5.703,0.534,11.41,0.778,17.113 c0.145,3.361,5.391,3.48,5.244,0.094c-0.332-7.789-0.646-15.584-1.138-23.366c-0.012-0.176-0.039-0.341-0.075-0.499 c0.104-2.572-0.102-5.165-0.625-7.686c3.479,2.052,5.803,5.52,6.607,10.006C42.8,31.09,47.852,29.677,47.259,26.37z"/></symbol><symbol id="soccer-shoe" viewBox="0 0 480.043 480.043"><title>soccer-shoe</title><path d="M432.7,341.222c-4-0.1-8-0.1-12.4-0.1c-6.5,0-12.199,0.1-17.8,0.4l5.7,31.299c0.2,1.301,1.4,2.201,2.7,2.201h27.7 c1.3,0,2.399-0.9,2.699-2.201l6.5-31.6c-1.699,0-3.3,0-5,0C439.601,341.321,436.3,341.321,432.7,341.222z"/><path d="M334.3,373.321c0.2,1.301,1.4,2.201,2.7,2.201h27.7c1.3,0,2.4-0.9,2.7-2.201l6.2-30.6c-12.301,0.5-27.601,1-44.5,1.5 L334.3,373.321z"/><path d="M119.4,377.622c0.2,1.3,1.4,2.199,2.7,2.199h27.7c1.3,0,2.4-0.899,2.7-2.199l5.8-28.5c-17.5,0.4-32.6,0.699-43.9,0.9 L119.4,377.622z"/><path d="M49.8,343.722l6.2,33.9c0.2,1.3,1.4,2.199,2.7,2.199h27.7c1.3,0,2.4-0.899,2.7-2.199l5.7-27.7 c-14.8-0.7-30.2-3.601-44.4-8.3C49.9,342.321,49.7,343.022,49.8,343.722z"/><path d="M437.7,145.422c-10.7,0-9.7,32.4-32.5,40.7c-11,4-21.6,5.6-30.9,5.6c-16.6,0-29.3-4.9-34-9.5 c-7.399-7.2,59.801-29.9,45.4-49.4l-22-29.5c-1.5-2-3.8-3.1-6.1-3.1c-1.5,0-3,0.5-4.4,1.5l-73.8,54.2c0,0-28.2,0-33.1,16.5 c0,0-0.801-0.1-2.201-0.1c-6.1,0-22.699,1.3-27.199,15.2c0,0-69.9,13.8-111.6,36.2c-41.6,22.301-105.3,21-105.3,56.5 s56.4,59.2,101.1,59.2c44.7,0,269-6.8,300.4-8.601c6.7-0.399,13-0.5,18.9-0.5c8.399,0,15.899,0.201,22.5,0.201 c23.8,0,36.1-3,36.5-30.301c0.6-40.199,5.5-102.4-25.101-141.3C446.4,149.222,441.3,145.422,437.7,145.422z M292.2,302.222h-37 c-0.7,0-1.3-0.3-1.8-0.699l-80.3-73.5c-1.6-1.5-0.9-4.1,1.1-4.6l28-7.5c0.9-0.2,1.9,0,2.5,0.6l89.399,81 C295.9,299.122,294.7,302.222,292.2,302.222z M366.9,302.122l-39-0.5c-0.7,0-1.3-0.301-1.8-0.7l-99.601-90.3 c-1.6-1.5-1-4.1,1.1-4.7l27.9-7.5c0.9-0.2,1.801,0,2.5,0.6l110.8,98.299C370.601,299.022,369.4,302.122,366.9,302.122z"/></symbol><symbol id="technology" viewBox="0 0 51.413 51.413"><title>technology</title><path style="fill:#010002;" d="M25.989,12.274c8.663,0.085,14.09-0.454,14.823,9.148h10.564c0-14.875-12.973-16.88-25.662-16.88 c-12.69,0-25.662,2.005-25.662,16.88h10.482C11.345,11.637,17.398,12.19,25.989,12.274z"/><path style="fill:#010002;" d="M5.291,26.204c2.573,0,4.714,0.154,5.19-2.377c0.064-0.344,0.101-0.734,0.101-1.185H10.46H0 C0,26.407,2.369,26.204,5.291,26.204z"/><path style="fill:#010002;" d="M40.88,22.642h-0.099c0,0.454,0.039,0.845,0.112,1.185c0.502,2.334,2.64,2.189,5.204,2.189 c2.936,0,5.316,0.193,5.316-3.374H40.88z"/><path style="fill:#010002;" d="M35.719,20.078v-1.496c0-0.669-0.771-0.711-1.723-0.711h-1.555c-0.951,0-1.722,0.042-1.722,0.711 v1.289v1h-11v-1v-1.289c0-0.669-0.771-0.711-1.722-0.711h-1.556c-0.951,0-1.722,0.042-1.722,0.711v1.496v1.306 C12.213,23.988,4.013,35.073,3.715,36.415l0.004,8.955c0,0.827,0.673,1.5,1.5,1.5h40c0.827,0,1.5-0.673,1.5-1.5v-9 c-0.295-1.303-8.493-12.383-11-14.987V20.078z M19.177,37.62c-0.805,0-1.458-0.652-1.458-1.458s0.653-1.458,1.458-1.458 s1.458,0.652,1.458,1.458S19.982,37.62,19.177,37.62z M19.177,32.62c-0.805,0-1.458-0.652-1.458-1.458s0.653-1.458,1.458-1.458 s1.458,0.652,1.458,1.458S19.982,32.62,19.177,32.62z M19.177,27.621c-0.805,0-1.458-0.652-1.458-1.458 c0-0.805,0.653-1.458,1.458-1.458s1.458,0.653,1.458,1.458C20.635,26.969,19.982,27.621,19.177,27.621z M25.177,37.62 c-0.805,0-1.458-0.652-1.458-1.458s0.653-1.458,1.458-1.458c0.806,0,1.458,0.652,1.458,1.458S25.983,37.62,25.177,37.62z M25.177,32.62c-0.805,0-1.458-0.652-1.458-1.458s0.653-1.458,1.458-1.458c0.806,0,1.458,0.652,1.458,1.458 S25.983,32.62,25.177,32.62z M25.177,27.621c-0.805,0-1.458-0.652-1.458-1.458c0-0.805,0.653-1.458,1.458-1.458 c0.806,0,1.458,0.653,1.458,1.458C26.635,26.969,25.983,27.621,25.177,27.621z M31.177,37.62c-0.806,0-1.458-0.652-1.458-1.458 s0.652-1.458,1.458-1.458s1.458,0.652,1.458,1.458S31.983,37.62,31.177,37.62z M31.177,32.62c-0.806,0-1.458-0.652-1.458-1.458 s0.652-1.458,1.458-1.458s1.458,0.652,1.458,1.458S31.983,32.62,31.177,32.62z M31.177,27.621c-0.806,0-1.458-0.652-1.458-1.458 c0-0.805,0.652-1.458,1.458-1.458s1.458,0.653,1.458,1.458C32.635,26.969,31.983,27.621,31.177,27.621z"/></symbol><symbol id="timer-clock" viewBox="0 0 305.308 305.308"><title>timer-clock</title><path d="M91.699,44.068c-5.181-4.469-11.91-7.185-19.286-7.185c-16.329,0-29.564,13.241-29.564,29.567 c0,4.427,1.002,8.616,2.747,12.386C58.378,64.341,74.042,52.441,91.699,44.068z"/><path d="M152.656,305.308c72.993,0,132.169-59.176,132.169-132.167c0-65.368-47.463-119.611-109.808-130.245v-5.375v-5.383V18.124 h11.465c3.79,0,6.866-4.055,6.866-9.062c0-5.004-3.076-9.062-6.866-9.062h-67.658c-3.795,0-6.872,4.058-6.872,9.062 c0,5.007,3.076,9.062,6.872,9.062h11.459v14.009v5.383v5.375c-11.131,1.9-21.777,5.186-31.771,9.683 c-18.077,8.129-33.989,20.187-46.652,35.108c-19.555,23.042-31.379,52.858-31.379,85.454 C20.487,246.132,79.663,305.308,152.656,305.308z M74.79,95.899c7.438-7.498,15.943-13.93,25.277-19.045 c15.625-8.57,33.546-13.463,52.594-13.463c60.52,0,109.748,49.234,109.748,109.75c0,60.518-49.229,109.751-109.748,109.751 c-60.517,0-109.75-49.233-109.75-109.751C42.906,143.043,55.098,115.747,74.79,95.899z"/><path d="M86.296,239.499c4.246,4.246,8.898,8.088,13.888,11.459c2.496,1.683,5.08,3.257,7.736,4.696 c13.297,7.224,28.536,11.33,44.731,11.33c2.025,0,4.034-0.067,6.025-0.197c9.963-0.626,19.506-2.812,28.387-6.317 c3.552-1.397,7-3.014,10.324-4.82c2.662-1.444,5.24-3.009,7.736-4.696c4.992-3.377,9.642-7.208,13.888-11.46 c16.984-16.983,27.485-40.44,27.485-66.357c0-25.914-10.501-49.378-27.485-66.36c-4.246-4.248-8.896-8.085-13.888-11.459 c-2.496-1.686-5.079-3.254-7.736-4.699c-3.324-1.807-6.772-3.412-10.324-4.818c-8.876-3.5-18.424-5.69-28.387-6.319 c-1.991-0.13-4-0.192-6.025-0.192c-16.2,0-31.434,4.104-44.731,11.325c-2.662,1.444-5.24,3.014-7.736,4.699 c-4.994,3.373-9.647,7.21-13.888,11.459c-16.984,16.981-27.488,40.441-27.488,66.36C58.813,199.058,69.317,222.515,86.296,239.499 z M152.656,98.462v70.309l-70.682,27.165C69.462,147.196,103.676,98.462,152.656,98.462z"/></symbol></svg>